<?xml version="1.0" encoding="UTF-8"?>
<svg version="1.1" xmlns="http://www.w3.org/2000/svg" width="215" height="217">
<path d="M0 0 C70.95 0 141.9 0 215 0 C215 71.61 215 143.22 215 217 C144.05 217 73.1 217 0 217 C0 145.39 0 73.78 0 0 Z " fill="#FEFEFD" transform="translate(0,0)"/>
<path d="M0 0 C1.2684375 0.40025391 1.2684375 0.40025391 2.5625 0.80859375 C5.13120703 1.73481023 7.54151457 2.81124132 10 4 C11.06734375 4.50917969 12.1346875 5.01835938 13.234375 5.54296875 C24.71945912 11.5279737 35.53002783 20.60653681 42 32 C42 33.32 42 34.64 42 36 C42.66 36 43.32 36 44 36 C44.29003906 36.81404297 44.29003906 36.81404297 44.5859375 37.64453125 C44.84632812 38.35996094 45.10671875 39.07539062 45.375 39.8125 C45.63023438 40.52019531 45.88546875 41.22789063 46.1484375 41.95703125 C47.0265769 44.24773359 47.0265769 44.24773359 49 47 C49.58269103 49.00704689 50.00395741 51.01865638 50.4375 53.0625 C50.98102599 55.29731913 50.98102599 55.29731913 53 58 C53.62255859 60.24560547 53.62255859 60.24560547 54.1484375 62.8671875 C54.44633179 64.30976929 54.44633179 64.30976929 54.75024414 65.78149414 C54.95641357 66.80235107 55.16258301 67.82320801 55.375 68.875 C57.16950632 77.44772276 59.28261397 85.67462208 62 94 C62.76219652 96.53803584 63.51207374 99.07980172 64.25 101.625 C64.75273437 103.34589844 64.75273437 103.34589844 65.265625 105.1015625 C66 108 66 108 66 111 C66.66 111 67.32 111 68 111 C68.34611328 111.94359375 68.34611328 111.94359375 68.69921875 112.90625 C71.72141294 120.83801657 74.76003724 128.11302513 82 133 C82.7425 133.5775 83.485 134.155 84.25 134.75 C88.21809327 136.55367876 91.71734608 136.8199269 96 136 C98.62720102 134.56969018 100.66462648 132.90642736 103 131 C103.66 131 104.32 131 105 131 C103.28557732 141.05437467 98.24774894 148.11925209 90 154 C84.0639863 156.96800685 77.68005861 156.54509667 71.3125 155.25 C62.35341918 151.86921478 57.22545286 145.85187168 53 137.5 C49.48428785 129.53227638 47.53179247 121.17472894 45.4453125 112.7421875 C44.2067273 107.7397624 42.81069571 102.80504295 41.3125 97.875 C39.82703747 92.97146969 38.52225464 88.07220021 37.4375 83.0625 C35.68816564 75.18066765 32.69503694 68.05855765 28.98046875 60.9140625 C28.34587976 59.67522344 27.74183783 58.42005275 27.17578125 57.1484375 C22.07426199 45.92971188 13.64327232 36.54072278 4 29 C3.01 28.67 2.02 28.34 1 28 C1.4846875 28.58265625 1.969375 29.1653125 2.46875 29.765625 C15.54709259 45.76144401 29.743714 67.35400819 29 89 C15.0424984 89.83374456 0.78472097 85.75655028 -9.8984375 76.484375 C-21.58085009 64.20556296 -26.7031743 49.26579206 -29.5 32.875 C-31.72104039 19.88580891 -35.25586652 8.28833154 -46 0 C-46 -0.66 -46 -1.32 -46 -2 C-31.368029 -4.70220338 -14.2306419 -4.56566428 0 0 Z " fill="#F89E37" transform="translate(54,30)"/>
<path d="M0 0 C6.57831152 0.08339924 6.57831152 0.08339924 9.65625 1.97265625 C11.44634602 4.09058962 12.5625 5.86685773 12.5625 8.6875 C17.27702177 8.98163023 17.27702177 8.98163023 21.6875 7.625 C23.5625 6.6875 23.5625 6.6875 25.875 6.625 C30.26593872 8.36095252 33.16526253 10.56934065 35.5625 14.6875 C38.05459311 27.96204928 33.01381262 40.51413612 25.90625 51.48046875 C20.85293641 58.39508618 14.91233647 64.44443282 8.75 70.375 C3.09949391 75.94420384 -0.4439755 82.3989186 -3.4375 89.6875 C-4.22344771 91.30484138 -5.03749687 92.90874406 -5.875 94.5 C-6.26558594 95.24894531 -6.65617187 95.99789062 -7.05859375 96.76953125 C-8.66905187 99.00957356 -9.86475078 99.74350646 -12.4375 100.6875 C-16.94943503 101.01564073 -20.50363497 101.00747169 -24.4375 98.6875 C-30.93952034 92.26820257 -34.27259578 86.25959571 -34.8125 77.125 C-34.68047047 68.21300647 -30.41260999 60.9017206 -25.4375 53.75 C-18.4686818 43.5536573 -16.12014543 34.66424088 -15.81201172 22.5168457 C-15.46590926 11.76699046 -12.50144472 -0.03716981 0 0 Z " fill="#F78F65" transform="translate(162.4375,59.3125)"/>
<path d="M0 0 C1.2684375 0.40025391 1.2684375 0.40025391 2.5625 0.80859375 C5.13120703 1.73481023 7.54151457 2.81124132 10 4 C11.06734375 4.50917969 12.1346875 5.01835938 13.234375 5.54296875 C24.71945912 11.5279737 35.53002783 20.60653681 42 32 C42 33.32 42 34.64 42 36 C42.66 36 43.32 36 44 36 C44.29003906 36.81404297 44.29003906 36.81404297 44.5859375 37.64453125 C44.84632812 38.35996094 45.10671875 39.07539062 45.375 39.8125 C45.63023438 40.52019531 45.88546875 41.22789063 46.1484375 41.95703125 C47.0265769 44.24773359 47.0265769 44.24773359 49 47 C49.58269103 49.00704689 50.00395741 51.01865638 50.4375 53.0625 C50.98102599 55.29731913 50.98102599 55.29731913 53 58 C53.62255859 60.24560547 53.62255859 60.24560547 54.1484375 62.8671875 C54.44633179 64.30976929 54.44633179 64.30976929 54.75024414 65.78149414 C54.95641357 66.80235107 55.16258301 67.82320801 55.375 68.875 C57.16950632 77.44772276 59.28261397 85.67462208 62 94 C62.76219652 96.53803584 63.51207374 99.07980172 64.25 101.625 C64.75273437 103.34589844 64.75273437 103.34589844 65.265625 105.1015625 C66 108 66 108 66 111 C66.66 111 67.32 111 68 111 C68.34611328 111.94359375 68.34611328 111.94359375 68.69921875 112.90625 C71.72141294 120.83801657 74.76003724 128.11302513 82 133 C82.7425 133.5775 83.485 134.155 84.25 134.75 C88.21809327 136.55367876 91.71734608 136.8199269 96 136 C98.62720102 134.56969018 100.66462648 132.90642736 103 131 C103.66 131 104.32 131 105 131 C103.28557732 141.05437467 98.24774894 148.11925209 90 154 C84.0639863 156.96800685 77.68005861 156.54509667 71.3125 155.25 C62.35341918 151.86921478 57.22545286 145.85187168 53 137.5 C49.48428785 129.53227638 47.53179247 121.17472894 45.4453125 112.7421875 C44.2067273 107.7397624 42.81069571 102.80504295 41.3125 97.875 C39.82703747 92.97146969 38.52225464 88.07220021 37.4375 83.0625 C36.37038969 78.20593546 34.86612845 73.80247362 32.91796875 69.234375 C31.67500169 66.20894029 30.82492239 63.16220248 30 60 C31.37562854 61.28965176 32.70766393 62.62689293 34 64 C34 64.66 34 65.32 34 66 C34.66 66 35.32 66 36 66 C36.55429688 67.13179688 37.10859375 68.26359375 37.6796875 69.4296875 C38.4112463 70.91156303 39.14302878 72.39332815 39.875 73.875 C40.42220703 74.99455078 40.42220703 74.99455078 40.98046875 76.13671875 C41.33496094 76.85214844 41.68945312 77.56757812 42.0546875 78.3046875 C42.37937012 78.96452637 42.70405273 79.62436523 43.03857422 80.30419922 C44.00275819 82.18034686 44.00275819 82.18034686 46 84 C45.5298569 78.1702256 44.53824263 73.03512252 42.75 67.47265625 C42.04072805 65.13427529 41.52933871 62.83421657 41.0625 60.4375 C40.20754518 56.35110576 38.71322516 52.79456835 36.90234375 49.04296875 C36.01814513 47.04108183 35.46519647 45.13414877 35 43 C34.34 43 33.68 43 33 43 C32.01 40.03 32.01 40.03 31 37 C30.34 37 29.68 37 29 37 C27.44921875 35.171875 27.44921875 35.171875 25.6875 32.75 C23.04441139 29.24408494 20.48633497 26.68179613 17 24 C16.02659397 22.82482353 15.06942189 21.63609348 14.125 20.4375 C11.73466422 17.58956846 9.74238312 16.13490357 6.171875 14.87890625 C3.18231328 13.6691016 0.48633306 12.03730246 -2.3125 10.4375 C-7.12237046 7.80036413 -11.2399939 6.12813985 -16.68359375 5.484375 C-19 5 -19 5 -21.80078125 3.49609375 C-25.59323728 1.72257646 -28.58151514 1.49785753 -32.75 1.3125 C-34.06484375 1.24675781 -35.3796875 1.18101563 -36.734375 1.11328125 C-38.48893413 1.05241736 -40.24438554 1 -42 1 C-42.33 1.66 -42.66 2.32 -43 3 C-44.5 1.625 -44.5 1.625 -46 0 C-46 -0.66 -46 -1.32 -46 -2 C-31.368029 -4.70220338 -14.2306419 -4.56566428 0 0 Z " fill="#FAB371" transform="translate(54,30)"/>
<path d="M0 0 C1.37562854 1.28965176 2.70766393 2.62689293 4 4 C4 4.66 4 5.32 4 6 C4.66 6 5.32 6 6 6 C6.53109375 7.12019531 7.0621875 8.24039063 7.609375 9.39453125 C8.32237919 10.8674478 9.0359507 12.34008982 9.75 13.8125 C10.09804687 14.55048828 10.44609375 15.28847656 10.8046875 16.04882812 C12.78008896 20.09108481 14.28488379 22.36947109 18 25 C18.65234375 27.09375 18.65234375 27.09375 18.9375 29.5 C19.77038756 34.57103221 21.50055448 38.68520871 23.72265625 43.296875 C24.88354008 45.75354659 25.86467077 48.20560509 26.8125 50.75 C31.45135584 62.42195987 36.35352243 71.90234829 47 79 C49.52272258 79.1693295 51.91957416 79.23336826 54.4375 79.1875 C55.75621094 79.18105469 57.07492188 79.17460937 58.43359375 79.16796875 C61.18516918 79.03837648 63.40189099 78.83059751 66 78 C66 77.34 66 76.68 66 76 C67.4609375 74.7109375 67.4609375 74.7109375 69.375 73.375 C70.00148438 72.92898437 70.62796875 72.48296875 71.2734375 72.0234375 C73 71 73 71 75 71 C73.28557732 81.05437467 68.24774894 88.11925209 60 94 C54.0639863 96.96800685 47.68005861 96.54509667 41.3125 95.25 C32.35341918 91.86921478 27.22545286 85.85187168 23 77.5 C19.48428785 69.53227638 17.53179247 61.17472894 15.4453125 52.7421875 C14.2067273 47.7397624 12.81069571 42.80504295 11.3125 37.875 C9.82703747 32.97146969 8.52225464 28.07220021 7.4375 23.0625 C6.37038969 18.20593546 4.86612845 13.80247362 2.91796875 9.234375 C1.67500169 6.20894029 0.82492239 3.16220248 0 0 Z " fill="#F27B56" transform="translate(84,90)"/>
<path d="M0 0 C3.97941723 1.51596847 6.61014844 3.26482668 8.625 7 C10.90489609 20.40510334 6.15635976 32.70313056 -1.03125 43.79296875 C-6.08456359 50.70758618 -12.02516353 56.75693282 -18.1875 62.6875 C-24.72624209 69.13215947 -28.50072504 76.77175932 -31.5625 85.3125 C-33.60020676 88.33392727 -34.18605062 88.5249432 -37.5625 89.375 C-39.4496875 89.684375 -39.4496875 89.684375 -41.375 90 C-42.09704462 77.38427594 -40.08989403 68.51892163 -31.86328125 58.77734375 C-30.30852508 57.05984087 -30.30852508 57.05984087 -29.375 55 C-28.715 55 -28.055 55 -27.375 55 C-27.375 54.34 -27.375 53.68 -27.375 53 C-26.23305436 51.85805436 -25.08787454 50.71921989 -23.9296875 49.59375 C-13.49841236 38.90038252 -7.28779952 26.00412014 -6.75 11.125 C-6.71132812 10.24585937 -6.67265625 9.36671875 -6.6328125 8.4609375 C-6.53918966 6.30761207 -6.45603541 4.15383586 -6.375 2 C-2.671875 0 -2.671875 0 0 0 Z " fill="#F16E5E" transform="translate(189.375,67)"/>
<path d="M0 0 C3.33772993 1.40155759 5.01749057 2.9509686 7.125 5.875 C7.62257813 6.55304687 8.12015625 7.23109375 8.6328125 7.9296875 C10.73764556 11.11700614 12 13.12442453 12 17 C12.66 17 13.32 17 14 17 C14 17.66 14 18.32 14 19 C14.66 19 15.32 19 16 19 C18.91011864 22.79580692 19.96769135 26.99101756 21.24609375 31.515625 C22.0197651 34.2321868 22.0197651 34.2321868 23.5625 37.625 C25.17092567 41.40130375 26.08861154 45.00391214 27 49 C27.66 49 28.32 49 29 49 C30.2265625 50.50390625 30.2265625 50.50390625 31.625 52.5625 C36.91761136 59.80299738 43.25394127 65.46531419 52 68 C55.66529631 68.56023959 59.29602651 68.8615337 63 69 C63.67756882 70.55780332 64.34159457 72.12150096 65 73.6875 C65.37125 74.55761719 65.7425 75.42773438 66.125 76.32421875 C67.01870488 79.0572002 67.16449676 81.14700934 67 84 C53.0424984 84.83374456 38.78472097 80.75655028 28.1015625 71.484375 C15.85777513 58.61552941 11.04581169 42.99006004 8.16552734 25.88916016 C6.767741 17.99704342 4.46753686 9.7013053 0 3 C0 2.01 0 1.02 0 0 Z " fill="#98A83C" transform="translate(16,35)"/>
<path d="M0 0 C3.5625 0.4375 3.5625 0.4375 5.25 2.3125 C5.683125 3.34375 6.11625 4.375 6.5625 5.4375 C6.89064697 6.12086426 7.21879395 6.80422852 7.55688477 7.50830078 C10.63440627 14.32496535 10.93386985 20.04210827 10.8125 27.4375 C10.75726719 37.15035921 10.75726719 37.15035921 15.5625 45.3125 C16.6453125 46.34117188 16.6453125 46.34117188 17.75 47.390625 C20.84654671 50.88758724 20.71574111 54.9360424 20.5625 59.4375 C15.74829475 58.60427217 14.38203925 56.2752062 11.5625 52.4375 C11.5625 51.7775 11.5625 51.1175 11.5625 50.4375 C11.04300781 50.72625 10.52351563 51.015 9.98828125 51.3125 C6.99414069 52.90642326 4.14785597 54.27414485 0.875 55.1875 C-3.14637221 53.88327117 -4.48799275 49.98410357 -6.4375 46.4375 C-7.57451597 45.07217451 -7.57451597 45.07217451 -10.59765625 45.33984375 C-11.88542969 45.35144531 -13.17320312 45.36304688 -14.5 45.375 C-15.79035156 45.38402344 -17.08070313 45.39304688 -18.41015625 45.40234375 C-19.90869141 45.41974609 -19.90869141 45.41974609 -21.4375 45.4375 C-19.96606003 41.55824918 -18.16758092 40.18424505 -14.4375 38.4375 C-11.69216351 37.69785666 -8.92938881 37.20862659 -6.125 36.75 C-5.38443359 36.62044922 -4.64386719 36.49089844 -3.88085938 36.35742188 C-2.06797666 36.0416294 -0.25293149 35.73829417 1.5625 35.4375 C3.72700923 28.94397231 2.69424507 21.84457823 0.5625 15.4375 C-1.23247566 12.35238558 -2.92408041 9.95091959 -5.4375 7.4375 C-5.6875 4.9375 -5.6875 4.9375 -5.4375 2.4375 C-3.4375 0.4375 -3.4375 0.4375 0 0 Z " fill="#93A83E" transform="translate(179.4375,10.5625)"/>
<path d="M0 0 C0 0.33 0 0.66 0 1 C-3.3 1 -6.6 1 -10 1 C-10 1.99 -10 2.98 -10 4 C-7.69 4.66 -5.38 5.32 -3 6 C-2.62139796 12.31003399 -2.62139796 12.31003399 -4.4296875 15.60546875 C-6.5040212 20.08953836 -6.80317504 24.31364527 -7.3125 29.1875 C-8.60479271 39.69905429 -11.17052307 47.54255005 -19 55 C-19.66 54.67 -20.32 54.34 -21 54 C-20.34 53.01 -19.68 52.02 -19 51 C-19.495 49.515 -19.495 49.515 -20 48 C-20.66 48 -21.32 48 -22 48 C-22.04125 48.598125 -22.0825 49.19625 -22.125 49.8125 C-23 52 -23 52 -26.0625 53.75 C-27.031875 54.1625 -28.00125 54.575 -29 55 C-27.91902396 52.0273159 -26.6886941 49.47780945 -25.0625 46.75 C-20.92336076 39.59437901 -19.63831374 32.74205237 -19.5625 24.5625 C-19.33615598 17.34612007 -18.64290835 11.38828855 -15 5 C-14.484375 3.96875 -13.96875 2.9375 -13.4375 1.875 C-9.42234 -1.21358461 -4.88006282 -0.37862556 0 0 Z " fill="#EB8E69" transform="translate(166,60)"/>
<path d="M0 0 C1.670625 0.061875 1.670625 0.061875 3.375 0.125 C3.375 0.785 3.375 1.445 3.375 2.125 C2.715 2.125 2.055 2.125 1.375 2.125 C1.375 4.765 1.375 7.405 1.375 10.125 C2.035 10.455 2.695 10.785 3.375 11.125 C3.97265625 13.33984375 3.97265625 13.33984375 4.4375 16.0625 C5.04305467 19.71272209 5.04305467 19.71272209 6.375 23.125 C7.99932689 33.97427771 5.57601189 39.97020954 -0.65625 48.5546875 C-1.3059375 49.40289062 -1.955625 50.25109375 -2.625 51.125 C-3.264375 50.320625 -3.90375 49.51625 -4.5625 48.6875 C-6.03103502 46.8499496 -6.03103502 46.8499496 -7.625 45.125 C-9.97813555 45.05228259 -12.33333668 45.04129132 -14.6875 45.0625 C-15.97785156 45.07152344 -17.26820313 45.08054688 -18.59765625 45.08984375 C-20.09619141 45.10724609 -20.09619141 45.10724609 -21.625 45.125 C-20.15356003 41.24574918 -18.35508092 39.87174505 -14.625 38.125 C-11.87966351 37.38535666 -9.11688881 36.89612659 -6.3125 36.4375 C-5.57193359 36.30794922 -4.83136719 36.17839844 -4.06835938 36.04492188 C-2.25547666 35.7291294 -0.44043149 35.42579417 1.375 35.125 C3.53950923 28.63147231 2.50674507 21.53207823 0.375 15.125 C-1.41997566 12.03988558 -3.11158041 9.63841959 -5.625 7.125 C-5.875 4.625 -5.875 4.625 -5.625 2.125 C-3.625 0.125 -3.625 0.125 0 0 Z " fill="#A6B844" transform="translate(179.625,10.875)"/>
<path d="M0 0 C1.37562854 1.28965176 2.70766393 2.62689293 4 4 C4 4.66 4 5.32 4 6 C4.66 6 5.32 6 6 6 C7.12672175 8.39503687 8.25142558 10.7909871 9.375 13.1875 C9.69210938 13.86103516 10.00921875 14.53457031 10.3359375 15.22851562 C11.67456024 18.08703293 12.96756142 20.91568269 14.1015625 23.86328125 C14.90954912 26.16138316 14.90954912 26.16138316 17 28 C17.28710938 30.50268555 17.28710938 30.50268555 17.34375 33.63671875 C17.37339844 34.77173828 17.40304688 35.90675781 17.43359375 37.07617188 C17.45550781 38.26791016 17.47742188 39.45964844 17.5 40.6875 C17.66023761 51.01946093 17.66023761 51.01946093 20 61 C20.125 63.9375 20.125 63.9375 20 66 C17.87795779 62.81693669 17.16307688 60.3917798 16.1953125 56.70703125 C15.86112305 55.44407227 15.52693359 54.18111328 15.18261719 52.87988281 C14.83001784 51.52410422 14.47747987 50.16830966 14.125 48.8125 C13.76250851 47.43705205 13.39955205 46.06172655 13.03613281 44.68652344 C11.20200261 37.72471405 9.43229924 30.75013567 7.75 23.75 C6.50533197 18.66668766 4.94819529 13.93458037 2.8828125 9.12890625 C1.64482177 6.14348613 0.81507461 3.12445269 0 0 Z " fill="#E68361" transform="translate(84,90)"/>
<path d="M0 0 C1.91716311 2.69822956 2.8199209 5.19387663 3.6875 8.375 C7.48053725 7.37306563 10.40286341 6.56475773 13.6875 4.375 C14.6775 4.375 15.6675 4.375 16.6875 4.375 C21.6875 9.72383721 21.6875 9.72383721 21.6875 12.375 C22.6775 12.375 23.6675 12.375 24.6875 12.375 C24.6875 10.065 24.6875 7.755 24.6875 5.375 C25.3475 5.705 26.0075 6.035 26.6875 6.375 C26.8828125 12.4296875 26.8828125 12.4296875 26.6875 14.375 C26.0275 15.035 25.3675 15.695 24.6875 16.375 C25.0175 16.705 25.3475 17.035 25.6875 17.375 C26.15951787 23.71979831 25.8185677 29.3813721 23.6875 35.375 C22.46017812 31.68387525 22.82074024 28.40981474 23.0625 24.5625 C23.09837734 19.65242985 22.98993702 16.63968015 19.625 12.9375 C16.63987644 10.51170712 15.85424773 10.375 11.8125 10.375 C8.84969296 11.06015484 8.84969296 11.06015484 7.6875 12.375 C4.4375 12.375 4.4375 12.375 0.6875 11.375 C-0.39453125 9.78125 -0.39453125 9.78125 -1.375 7.875 C-2.4429306 5.86723014 -2.4429306 5.86723014 -4.3125 4.375 C-8.98208624 3.44214887 -13.55992952 3.32998242 -18.3125 3.375 C-18.3125 3.045 -18.3125 2.715 -18.3125 2.375 C-15.3425 2.375 -12.3725 2.375 -9.3125 2.375 C-9.3125 1.715 -9.3125 1.055 -9.3125 0.375 C-11.6225 0.375 -13.9325 0.375 -16.3125 0.375 C-16.3125 0.045 -16.3125 -0.285 -16.3125 -0.625 C-3.79721338 -2.6683121 -3.79721338 -2.6683121 0 0 Z " fill="#F2EBE1" transform="translate(174.3125,56.625)"/>
<path d="M0 0 C1.32 0 2.64 0 4 0 C3.52292486 2.14683815 2.98984044 4.021269 2.0390625 6.01171875 C0.83549772 9.47309865 0.46831112 12.72044631 0.06274414 16.34985352 C-1.23236392 27.84204194 -3.36508759 36.7753858 -12 45 C-12.66 44.67 -13.32 44.34 -14 44 C-13.67386719 43.48953125 -13.34773437 42.9790625 -13.01171875 42.453125 C-7.77723698 33.74442967 -6.0109516 25.2826439 -5.5625 15.1875 C-5.26170735 8.94765245 -4.55387789 4.55387789 0 0 Z " fill="#F9EEE9" transform="translate(159,70)"/>
<path d="M0 0 C-1.57791133 9.25379248 -5.88258982 15.53001783 -12.9140625 21.6015625 C-15 23 -15 23 -18 23 C-18 21.68 -18 20.36 -18 19 C-17.34 19 -16.68 19 -16 19 C-16 18.01 -16 17.02 -16 16 C-15.34 16 -14.68 16 -14 16 C-14 14.35 -14 12.7 -14 11 C-17.96 10.67 -21.92 10.34 -26 10 C-26 9.67 -26 9.34 -26 9 C-25.10796875 8.93941406 -24.2159375 8.87882813 -23.296875 8.81640625 C-21.54117188 8.69072266 -21.54117188 8.69072266 -19.75 8.5625 C-18.58984375 8.48128906 -17.4296875 8.40007812 -16.234375 8.31640625 C-13.69022624 8.06752213 -11.44046752 7.71885058 -9 7 C-9 6.34 -9 5.68 -9 5 C-7.5390625 3.7109375 -7.5390625 3.7109375 -5.625 2.375 C-4.68527344 1.70597656 -4.68527344 1.70597656 -3.7265625 1.0234375 C-2 0 -2 0 0 0 Z " fill="#EF805D" transform="translate(159,161)"/>
<path d="M0 0 C0 0.33 0 0.66 0 1 C-3.3 1 -6.6 1 -10 1 C-10 1.99 -10 2.98 -10 4 C-7.69 4.66 -5.38 5.32 -3 6 C-3 7.32 -3 8.64 -3 10 C-3.763125 10.268125 -4.52625 10.53625 -5.3125 10.8125 C-8.00498475 11.78913749 -8.00498475 11.78913749 -9.5 13.625 C-11.61480104 15.56356762 -13.22122752 15.09924187 -16 15 C-16.04898438 15.96421875 -16.09796875 16.9284375 -16.1484375 17.921875 C-16.22320312 19.18515625 -16.29796875 20.4484375 -16.375 21.75 C-16.47941406 23.62945312 -16.47941406 23.62945312 -16.5859375 25.546875 C-16.95323304 28.60998121 -17.39711286 30.41974266 -19 33 C-19.77417692 13.2584885 -19.77417692 13.2584885 -15 5 C-14.484375 3.96875 -13.96875 2.9375 -13.4375 1.875 C-9.42234 -1.21358461 -4.88006282 -0.37862556 0 0 Z " fill="#EC9979" transform="translate(166,60)"/>
<path d="M0 0 C7.00850358 0.93690065 11.36507486 5.9879551 15.875 11.125 C17.85707847 13.80663557 18.8043491 15.93070458 20 19 C20.79798315 20.59069909 21.61087102 22.17399708 22.4375 23.75 C24.73071447 28.30240499 26.99239103 32.97223688 28 38 C27.67 38.99 27.34 39.98 27 41 C23.94379958 35.1546458 21.49005669 29.45691234 20 23 C19.34 23 18.68 23 18 23 C18 22.34 18 21.68 18 21 C17.34 21 16.68 21 16 21 C15.61328125 20.18015625 15.2265625 19.3603125 14.828125 18.515625 C14.30734375 17.43796875 13.7865625 16.3603125 13.25 15.25 C12.73953125 14.18265625 12.2290625 13.1153125 11.703125 12.015625 C10.0618254 9.10947066 8.53174317 7.1524942 6 5 C4.948125 4.7525 4.948125 4.7525 3.875 4.5 C2 4 2 4 0.75 1.9375 C0.5025 1.298125 0.255 0.65875 0 0 Z " fill="#B7A02C" transform="translate(12,31)"/>
<path d="M0 0 C1.670625 0.061875 1.670625 0.061875 3.375 0.125 C3.375 0.785 3.375 1.445 3.375 2.125 C2.715 2.125 2.055 2.125 1.375 2.125 C1.375 4.765 1.375 7.405 1.375 10.125 C2.035 10.455 2.695 10.785 3.375 11.125 C4.54563143 17.44640973 4.48107393 23.71342029 4.375 30.125 C4.045 30.125 3.715 30.125 3.375 30.125 C3.20484375 29.11179687 3.0346875 28.09859375 2.859375 27.0546875 C2.61531887 25.70299199 2.37048568 24.35143662 2.125 23 C2.01542969 22.33484375 1.90585938 21.6696875 1.79296875 20.984375 C0.73680707 15.31445438 -1.494654 11.255346 -5.625 7.125 C-5.875 4.625 -5.875 4.625 -5.625 2.125 C-3.625 0.125 -3.625 0.125 0 0 Z " fill="#AEBE5A" transform="translate(179.625,10.875)"/>
<path d="M0 0 C1.953125 1.17578125 1.953125 1.17578125 4 3 C4.609375 5.48046875 4.609375 5.48046875 4.75 8.1875 C4.80671875 9.08855469 4.8634375 9.98960938 4.921875 10.91796875 C4.96054688 11.94857422 4.96054688 11.94857422 5 13 C0.18579475 12.16677217 -1.18046075 9.8377062 -4 6 C-4 5.34 -4 4.68 -4 4 C-5.32 4.33 -6.64 4.66 -8 5 C-8 4.01 -8 3.02 -8 2 C-6.8553125 2.061875 -6.8553125 2.061875 -5.6875 2.125 C-2.77281584 2.22080824 -2.77281584 2.22080824 0 0 Z " fill="#9CAA4F" transform="translate(195,57)"/>
<path d="M0 0 C5.81713508 5.81713508 6.86102444 19.24449653 8.8125 27.1875 C9.04364502 28.10829346 9.27479004 29.02908691 9.51293945 29.9777832 C9.72136475 30.84491943 9.92979004 31.71205566 10.14453125 32.60546875 C10.33378174 33.38043701 10.52303223 34.15540527 10.71801758 34.95385742 C11 37 11 37 10 40 C6.58402468 33.52142611 5.21743476 27.47213044 4.08154297 20.32177734 C3.28623356 15.38254492 2.18670183 10.72044376 0.55078125 5.98046875 C0 4 0 4 0 0 Z " fill="#FCA45A" transform="translate(96,91)"/>
<path d="M0 0 C0.66 0.33 1.32 0.66 2 1 C2.1953125 7.0546875 2.1953125 7.0546875 2 9 C1.34 9.66 0.68 10.32 0 11 C0.33 11.33 0.66 11.66 1 12 C1.47201787 18.34479831 1.1310677 24.0063721 -1 30 C-2.21967801 26.29476604 -1.93149648 22.92754998 -1.75 19.0625 C-1.56395297 14.34816442 -1.56395297 14.34816442 -3.109375 10.04296875 C-4.61321434 8.5851633 -4.61321434 8.5851633 -7 7 C-7 6.34 -7 5.68 -7 5 C-4.69 5.66 -2.38 6.32 0 7 C0 4.69 0 2.38 0 0 Z " fill="#EEDCD4" transform="translate(199,62)"/>
<path d="M0 0 C4.26086957 6.39130435 4.26086957 6.39130435 3.625 10.3125 C3.315625 11.1478125 3.315625 11.1478125 3 12 C3 11.34 3 10.68 3 10 C2.28714844 10.03480469 1.57429688 10.06960937 0.83984375 10.10546875 C-5.31112456 10.27931846 -9.55379715 9.90464152 -15 7 C-15 6.67 -15 6.34 -15 6 C-9.25 5.875 -9.25 5.875 -7 7 C-4.6670134 7.04022391 -2.33293334 7.04320247 0 7 C0 4.69 0 2.38 0 0 Z " fill="#E1A649" transform="translate(76,94)"/>
<path d="M0 0 C0.78688445 2.77723925 1.11949924 5.22610077 1.09765625 8.109375 C1.09443359 8.86347656 1.09121094 9.61757812 1.08789062 10.39453125 C1.07951172 11.17183594 1.07113281 11.94914063 1.0625 12.75 C1.05798828 13.54277344 1.05347656 14.33554688 1.04882812 15.15234375 C1.03708565 17.10159508 1.01915146 19.05080738 1 21 C1.66 21.33 2.32 21.66 3 22 C2.67 23.32 2.34 24.64 2 26 C-2.21733277 19.58231969 -2.51624418 13.52756043 -2 6 C-1 2.375 -1 2.375 0 0 Z " fill="#E5A88C" transform="translate(130,125)"/>
<path d="M0 0 C1.37562854 1.28965176 2.70766393 2.62689293 4 4 C4 4.66 4 5.32 4 6 C4.66 6 5.32 6 6 6 C6.86627399 7.59766103 7.71766465 9.20339944 8.5625 10.8125 C9.27599609 12.15248047 9.27599609 12.15248047 10.00390625 13.51953125 C11 16 11 16 10 19 C9.71125 18.360625 9.4225 17.72125 9.125 17.0625 C8.17176549 14.84793921 8.17176549 14.84793921 6 14 C6 13.34 6 12.68 6 12 C5.34 12 4.68 12 4 12 C3.3291288 10.3767313 2.66342971 8.75132422 2 7.125 C1.62875 6.22007813 1.2575 5.31515625 0.875 4.3828125 C0 2 0 2 0 0 Z " fill="#EF9C5A" transform="translate(84,90)"/>
<path d="M0 0 C2.475 0.495 2.475 0.495 5 1 C4.96519531 1.96099609 4.96519531 1.96099609 4.9296875 2.94140625 C4.81578279 8.40069639 5.35229181 12.74793014 7 18 C7.125 20.9375 7.125 20.9375 7 23 C5.24205816 20.36308724 4.52272008 18.80005659 3.7109375 15.83984375 C3.49179688 15.04642578 3.27265625 14.25300781 3.046875 13.43554688 C2.82515625 12.61119141 2.6034375 11.78683594 2.375 10.9375 C2.14554687 10.10927734 1.91609375 9.28105469 1.6796875 8.42773438 C0 2.28387742 0 2.28387742 0 0 Z " fill="#E58D72" transform="translate(97,133)"/>
<path d="M0 0 C2.88310976 1.29242851 5.0400949 2.49314464 7 5 C7.07421875 7.26171875 7.07421875 7.26171875 6.6875 9.6875 C6.50767578 10.89986328 6.50767578 10.89986328 6.32421875 12.13671875 C6.21722656 12.75160156 6.11023438 13.36648437 6 14 C2.99569236 12.49784618 2.75276356 10.13528556 1.6640625 7.078125 C0.91732404 4.74127287 0.37872107 2.42381485 0 0 Z " fill="#A6B45A" transform="translate(16,35)"/>
<path d="M0 0 C1.15371094 0.00322266 2.30742187 0.00644531 3.49609375 0.00976562 C4.68589844 0.01814453 5.87570313 0.02652344 7.1015625 0.03515625 C8.92107422 0.04192383 8.92107422 0.04192383 10.77734375 0.04882812 C13.76046757 0.06057271 16.74348929 0.07699785 19.7265625 0.09765625 C19.7265625 0.42765625 19.7265625 0.75765625 19.7265625 1.09765625 C15.65154019 1.38380965 11.57642551 1.66860561 7.5012207 1.95214844 C6.11512697 2.04878101 4.72905895 2.14578334 3.34301758 2.24316406 C1.34984036 2.38313638 -0.64343806 2.52166528 -2.63671875 2.66015625 C-3.83594971 2.74394531 -5.03518066 2.82773437 -6.27075195 2.9140625 C-8.26885134 3.03623266 -10.27160666 3.09765625 -12.2734375 3.09765625 C-12.2734375 2.43765625 -12.2734375 1.77765625 -12.2734375 1.09765625 C-8.12420692 0.31185832 -4.22050319 -0.02089358 0 0 Z " fill="#F1BF87" transform="translate(20.2734375,26.90234375)"/>
<path d="M0 0 C1.07701172 0.44085938 1.07701172 0.44085938 2.17578125 0.890625 C3.9676922 1.5945015 5.77715595 2.2563333 7.60546875 2.859375 C14.64351005 5.28702011 14.64351005 5.28702011 16.625 9.25 C16.74875 10.1575 16.8725 11.065 17 12 C14.47509209 10.91789661 12.96453963 9.96225186 11.0625 7.9375 C9.15627266 5.79168366 9.15627266 5.79168366 6.5 5.5625 C3.00893401 4.77701015 1.98143972 2.86207959 0 0 Z " fill="#F3BE7C" transform="translate(49,53)"/>
<path d="M0 0 C3.29350444 2.66617026 4.55209379 6.14384162 6 10 C6.29390625 10.77601562 6.5878125 11.55203125 6.890625 12.3515625 C9.13147567 18.605573 9.13147567 18.605573 8 22 C5.59817766 17.4062233 3.57586568 12.95272072 2 8 C1.62875 7.29875 1.2575 6.5975 0.875 5.875 C0 4 0 4 0 0 Z " fill="#D8A332" transform="translate(31,50)"/>
<path d="M0 0 C2.875 -0.125 2.875 -0.125 6 0 C6.66 0.66 7.32 1.32 8 2 C10.56535222 2.34233585 13.102749 2.44212968 15.6875 2.55859375 C16.8321875 2.77708984 16.8321875 2.77708984 18 3 C18.99 4.485 18.99 4.485 20 6 C20.99 6.33 21.98 6.66 23 7 C23 7.66 23 8.32 23 9 C22.29746094 8.69964844 21.59492187 8.39929687 20.87109375 8.08984375 C17.95152015 6.98159744 15.10534979 6.25565883 12.0625 5.5625 C7.64064792 4.49384031 3.92159773 3.28759868 0 1 C0 0.67 0 0.34 0 0 Z " fill="#FBAD5D" transform="translate(29,31)"/>
<path d="M0 0 C0.66 0 1.32 0 2 0 C3.2265625 1.50390625 3.2265625 1.50390625 4.625 3.5625 C7.44329327 7.47062589 10.57382853 10.47819044 14.265625 13.5546875 C16 15 16 15 18 17 C12.84236214 16.14039369 10.05797182 15.43137364 6.875 11.125 C5.46626335 8.77710558 4.14587584 6.482731 3 4 C2.34 4 1.68 4 1 4 C0.67 2.68 0.34 1.36 0 0 Z " fill="#AEA22C" transform="translate(43,84)"/>
<path d="M0 0 C-0.55728913 3.34373475 -1.35173889 6.03312999 -3 9 C-3.99 9 -4.98 9 -6 9 C-6 8.34 -6 7.68 -6 7 C-6.99 6.34 -7.98 5.68 -9 5 C-7.87926138 4.16094435 -6.75325453 3.32892169 -5.625 2.5 C-4.99851563 2.0359375 -4.37203125 1.571875 -3.7265625 1.09375 C-2 0 -2 0 0 0 Z " fill="#E89279" transform="translate(159,161)"/>
<path d="M0 0 C3 1 3 1 4 3 C4.039992 4.99960012 4.04346799 7.00047242 4 9 C2.68 8.67 1.36 8.34 0 8 C-0.66 5.69 -1.32 3.38 -2 1 C-1.34 0.67 -0.68 0.34 0 0 Z " fill="#95A045" transform="translate(196,61)"/>
<path d="M0 0 C1.9375 0.6875 1.9375 0.6875 4 2 C4.875 4.5 4.875 4.5 5 7 C4.34 7.66 3.68 8.32 3 9 C0.875 8.625 0.875 8.625 -1 8 C-0.67 5.36 -0.34 2.72 0 0 Z " fill="#94AA3A" transform="translate(181,13)"/>
<path d="M0 0 C0.99 0.66 1.98 1.32 3 2 C2.09522263 3.46573934 1.17565859 4.92235756 0.25 6.375 C-0.26046875 7.18710938 -0.7709375 7.99921875 -1.296875 8.8359375 C-3 11 -3 11 -7 13 C-5.35 9.7 -3.7 6.4 -2 3 C-1.34 3 -0.68 3 0 3 C0 2.01 0 1.02 0 0 Z " fill="#F7DFD6" transform="translate(152,102)"/>
<path d="M0 0 C1.32 0 2.64 0 4 0 C4 0.66 4 1.32 4 2 C4.99 1.67 5.98 1.34 7 1 C7.66 1.66 8.32 2.32 9 3 C8.625 6.125 8.625 6.125 8 9 C5.06799526 6.14723863 2.35684596 3.34920216 0 0 Z " fill="#F4A14A" transform="translate(66,65)"/>
<path d="M0 0 C4.75 0.875 4.75 0.875 7 2 C8.87056791 2.2275015 10.74685958 2.40962811 12.625 2.5625 C13.62789062 2.64628906 14.63078125 2.73007813 15.6640625 2.81640625 C16.43492188 2.87699219 17.20578125 2.93757813 18 3 C18 3.66 18 4.32 18 5 C11.42684522 5.36517527 6.20514474 4.13619737 0 2 C0 1.34 0 0.68 0 0 Z " fill="#AFA22E" transform="translate(61,101)"/>
<path d="M0 0 C0.66 0.33 1.32 0.66 2 1 C1.67 5.29 1.34 9.58 1 14 C0.01 14 -0.98 14 -2 14 C-2 11.03 -2 8.06 -2 5 C-1.34 4.67 -0.68 4.34 0 4 C0 2.68 0 1.36 0 0 Z " fill="#9FB442" transform="translate(185,16)"/>
<path d="M0 0 C-0.33 0.33 -0.66 0.66 -1 1 C1.64 1 4.28 1 7 1 C2.93261417 3.71159055 -0.22987142 3.40999452 -5 3 C-7.42704396 2.48718197 -9.64511366 1.80166344 -12 1 C-10.66961551 0.6550855 -9.33542939 0.32483418 -8 0 C-7.154375 -0.20625 -6.30875 -0.4125 -5.4375 -0.625 C-3 -1 -3 -1 0 0 Z " fill="#E48C72" transform="translate(134,183)"/>
<path d="M0 0 C1.10824593 3.32473779 1.26962134 5.69898453 0 9 C-3.0625 10.8125 -3.0625 10.8125 -6 12 C-4.43358249 7.69235185 -2.31663844 3.93828536 0 0 Z " fill="#EBA287" transform="translate(143,103)"/>
<path d="M0 0 C4.95 0.33 9.9 0.66 15 1 C15 1.33 15 1.66 15 2 C12.03 2 9.06 2 6 2 C5.67 2.99 5.34 3.98 5 5 C3.35 3.35 1.7 1.7 0 0 Z " fill="#ECA648" transform="translate(14,30)"/>
<path d="M0 0 C-1.63412443 1.70840281 -2.86906094 2.93453047 -5 4 C-7.3329866 4.04022391 -9.66706666 4.04320247 -12 4 C-12 3.67 -12 3.34 -12 3 C-10.35 3 -8.7 3 -7 3 C-6.67 2.01 -6.34 1.02 -6 0 C-3 -1 -3 -1 0 0 Z " fill="#DC8776" transform="translate(155,156)"/>
<path d="M0 0 C3.78786597 0.5260925 6.17152224 1.38103911 9 4 C9 4.66 9 5.32 9 6 C2.35384615 4.52307692 2.35384615 4.52307692 0.5625 1.875 C0.376875 1.25625 0.19125 0.6375 0 0 Z " fill="#C6A748" transform="translate(12,31)"/>
<path d="M0 0 C1.875 0.3125 1.875 0.3125 4 1 C6 4 6 4 5.625 6.1875 C5.41875 6.785625 5.2125 7.38375 5 8 C0 2.25 0 2.25 0 0 Z " fill="#E38A74" transform="translate(110,171)"/>
<path d="M0 0 C0.66 0.33 1.32 0.66 2 1 C-0.475 2.485 -0.475 2.485 -3 4 C-2.01 4.99 -1.02 5.98 0 7 C-2.31 7 -4.62 7 -7 7 C-5.55609075 3.19333016 -3.65047197 1.73397418 0 0 Z " fill="#BFC582" transform="translate(165,49)"/>
<path d="M0 0 C5.01113235 1.4317521 6.94469549 3.98445693 10 8 C9.67 8.66 9.34 9.32 9 10 C5.06451569 6.93906776 2.31883213 4.50884026 0 0 Z " fill="#D3A233" transform="translate(20,37)"/>
<path d="M0 0 C2.86697492 1.28519565 4.97607712 2.57129254 7 5 C7 5.66 7 6.32 7 7 C6.34 7 5.68 7 5 7 C5 6.34 5 5.68 5 5 C4.01 5.33 3.02 5.66 2 6 C0 3 0 3 0 0 Z " fill="#A1A23D" transform="translate(16,35)"/>
<path d="M0 0 C1.95803507 -0.05389087 3.91648909 -0.09274217 5.875 -0.125 C7.51082031 -0.15980469 7.51082031 -0.15980469 9.1796875 -0.1953125 C12 0 12 0 14 2 C9.71 2 5.42 2 1 2 C0.67 2.66 0.34 3.32 0 4 C0 2.68 0 1.36 0 0 Z " fill="#E7B062" transform="translate(11,29)"/>
<path d="M0 0 C0.99 0.33 1.98 0.66 3 1 C3.73046875 3.06640625 3.73046875 3.06640625 4.1875 5.5625 C4.34605469 6.38878906 4.50460938 7.21507813 4.66796875 8.06640625 C4.77753906 8.70449219 4.88710938 9.34257813 5 10 C4.34 10 3.68 10 3 10 C2.49596232 8.70990357 1.99690074 7.41786211 1.5 6.125 C1.2215625 5.40570313 0.943125 4.68640625 0.65625 3.9453125 C0 2 0 2 0 0 Z " fill="#DBA132" transform="translate(40,74)"/>
<path d="M0 0 C0.33 0.66 0.66 1.32 1 2 C-0.01553817 5.0466145 -1.20762558 7.31143836 -3 10 C-3.66 10 -4.32 10 -5 10 C-3.84414715 6.08788267 -2.64465038 3.1254959 0 0 Z " fill="#E9A687" transform="translate(136,115)"/>
<path d="M0 0 C2.0343459 1.41519715 2.90410393 2.54982123 3.421875 4.98046875 C3.66273952 6.98176954 3.83532741 8.9909944 4 11 C2 10 2 10 0.875 7.75 C-0.00513321 4.98386705 -0.1645438 2.87951649 0 0 Z " fill="#B09F2B" transform="translate(37,69)"/>
<path d="M0 0 C2.375 0.25 2.375 0.25 5 1 C6.125 3 6.125 3 7 5 C7.99 5.33 8.98 5.66 10 6 C9.01 6.33 8.02 6.66 7 7 C4 5 4 5 3 2 C2.01 1.34 1.02 0.68 0 0 Z " fill="#F9A44E" transform="translate(61,46)"/>
<path d="M0 0 C2 2 2 2 2 6 C0.68 5.67 -0.64 5.34 -2 5 C-1.125 1.125 -1.125 1.125 0 0 Z " fill="#9DA749" transform="translate(79,106)"/>
<path d="M0 0 C2.5 1.125 2.5 1.125 5 3 C5.3125 6.1875 5.3125 6.1875 5 9 C0.57142857 3.85714286 0.57142857 3.85714286 0 0 Z " fill="#F68E51" transform="translate(97,112)"/>
<path d="M0 0 C1.5 1.0625 1.5 1.0625 3 3 C3.1875 6.6875 3.1875 6.6875 3 10 C-0.00617269 6.99382731 0.40414684 4.17618402 0 0 Z " fill="#B6C282" transform="translate(26,67)"/>
</svg>
